<svg width="24" height="24" viewBox="0 0 24 24" fill="none" xmlns="http://www.w3.org/2000/svg">
<rect width="24" height="24" rx="5" fill="#FEFEFF"/>
<path d="M5.1001 20C4.82396 20 4.6001 19.7761 4.6001 19.5V6.5C4.6001 6.22386 4.82396 6 5.1001 6H13.6201C13.8962 6 14.1201 6.22386 14.1201 6.5V7.8C14.1201 8.07614 13.8962 8.3 13.6201 8.3H7.6001C7.32396 8.3 7.1001 8.52386 7.1001 8.8V10.98C7.1001 11.2561 7.32396 11.48 7.6001 11.48H12.3801C12.6562 11.48 12.8801 11.7039 12.8801 11.98V13.28C12.8801 13.5561 12.6562 13.78 12.3801 13.78H7.6001C7.32396 13.78 7.1001 14.0039 7.1001 14.28V19.5C7.1001 19.7761 6.87624 20 6.6001 20H5.1001Z" fill="#1D1D1B"/>
</svg>
