<svg width="166" height="49" viewBox="0 0 166 49" fill="none" xmlns="http://www.w3.org/2000/svg">
<path fill-rule="evenodd" clip-rule="evenodd" d="M71.7061 13.8662C82.1996 13.8662 89.1729 20.8397 89.1729 31.2656C89.1727 41.759 82.1995 48.7998 71.7061 48.7998C61.2127 48.7997 54.1721 41.7589 54.1719 31.2656C54.1719 20.8398 61.2126 13.8663 71.7061 13.8662ZM71.6387 21.3135C66.0195 21.3135 62.2959 25.0369 62.2959 31.333C62.2959 37.6291 66.0196 41.3525 71.6387 41.3525C77.3254 41.3525 81.0488 37.6291 81.0488 31.333C81.0488 25.0369 77.3255 21.3135 71.6387 21.3135Z" fill="#FEFEFF"/>
<path d="M33.1055 7.58594C33.1055 8.13822 32.6578 8.58594 32.1055 8.58594H10.3428C9.79049 8.58594 9.34277 9.03365 9.34277 9.58594V18.3496C9.34277 18.9019 9.79049 19.3496 10.3428 19.3496H27.9082C28.4605 19.3496 28.9082 19.7973 28.9082 20.3496V26.1357C28.9082 26.688 28.4605 27.1357 27.9082 27.1357H10.3428C9.79049 27.1357 9.34277 27.5835 9.34277 28.1357V47.1904C9.34277 47.7427 8.89506 48.1904 8.34277 48.1904H1.87988C1.3276 48.1904 0.879883 47.7427 0.879883 47.1904V1.79981C0.879883 1.24752 1.3276 0.799805 1.87988 0.799805H32.1055C32.6578 0.799805 33.1055 1.24752 33.1055 1.7998V7.58594Z" fill="#FEFEFF"/>
<path d="M47.6934 47.1904C47.6934 47.7427 47.2456 48.1904 46.6934 48.1904H40.5693C40.0171 48.1904 39.5693 47.7427 39.5693 47.1904V1.79981C39.5693 1.24752 40.0171 0.799805 40.5693 0.799805H46.6934C47.2456 0.799805 47.6934 1.24752 47.6934 1.7998V47.1904Z" fill="#FEFEFF"/>
<path d="M107.499 34.6761C107.817 35.5579 109.064 35.5579 109.381 34.676L114.205 21.273L116.49 14.9977C116.634 14.6027 117.009 14.3398 117.43 14.3398H119.814C120.234 14.3398 120.609 14.6027 120.753 14.9978L122.929 20.9741L127.81 34.6559C128.126 35.5399 129.375 35.5416 129.693 34.6585L136.768 15.0012C136.911 14.6044 137.287 14.3398 137.709 14.3398H140.12C140.541 14.3398 140.916 14.6027 141.06 14.9978L143.235 20.9722C143.235 20.9731 143.235 20.9742 143.235 20.9751C143.235 20.976 143.235 20.9771 143.235 20.978L148.119 34.663C148.434 35.547 149.684 35.5486 150.002 34.6655L157.078 15.0012C157.221 14.6044 157.598 14.3398 158.019 14.3398H164.603C165.302 14.3398 165.785 15.0393 165.538 15.6934L153.498 47.544C153.351 47.933 152.979 48.1904 152.563 48.1904H145.552C145.135 48.1904 144.762 47.9323 144.616 47.5424L139.853 34.8771C139.528 34.0139 138.307 34.0128 137.981 34.8755L133.193 47.544C133.046 47.933 132.673 48.1904 132.257 48.1904H125.24C124.824 48.1904 124.452 47.933 124.304 47.544L119.516 34.8755C119.19 34.0128 117.969 34.0139 117.645 34.8771L112.881 47.5424C112.735 47.9323 112.362 48.1904 111.945 48.1904H104.934C104.518 48.1904 104.146 47.933 103.999 47.544L91.9599 15.6934C91.7126 15.0393 92.196 14.3398 92.8953 14.3398H99.4787C99.9004 14.3398 100.277 14.6044 100.42 15.0013L107.499 34.6761Z" fill="#FEFEFF"/>
</svg>
