<svg width="32" height="32" viewBox="0 0 32 32" fill="none" xmlns="http://www.w3.org/2000/svg">
<path d="M8 6H21C22.6569 6 24 7.34315 24 9H11C9.34315 9 8 7.65685 8 6Z" fill="#121212"/>
<path d="M24 16H16C13.2386 16 11 18.2386 11 21V27C9.34315 27 8 25.6569 8 24V21C8 16.5817 11.5817 13 16 13H24V16Z" fill="#121212"/>
<path d="M5 0.549805H27C29.4577 0.549805 31.4502 2.54233 31.4502 5V27C31.4502 29.4577 29.4577 31.4502 27 31.4502H5C2.54233 31.4502 0.549805 29.4577 0.549805 27V5C0.549805 2.54233 2.54233 0.549805 5 0.549805ZM10.4502 26.3857C9.36208 26.136 8.5498 25.1639 8.5498 24V21C8.5498 16.8855 11.8855 13.5498 16 13.5498H23.4502V15.4502H16C12.9348 15.4502 10.4502 17.9348 10.4502 21V26.3857ZM7.4502 6C7.4502 7.96061 9.03939 9.5498 11 9.5498H24.5498V9C24.5498 7.03939 22.9606 5.4502 21 5.4502H7.4502V6ZM21 6.5498C22.1639 6.5498 23.136 7.36208 23.3857 8.4502H11C9.83612 8.4502 8.86399 7.63792 8.61426 6.5498H21ZM11.5498 21C11.5498 18.5423 13.5423 16.5498 16 16.5498H24.5498V12.4502H16C11.278 12.4502 7.4502 16.278 7.4502 21V24C7.4502 25.9606 9.03939 27.5498 11 27.5498H11.5498V21Z" stroke="#121212" stroke-width="1.1"/>
</svg>
