<svg width="707" height="101" viewBox="0 0 707 101" fill="none" xmlns="http://www.w3.org/2000/svg">
<path d="M2 6.04167C2 4.55357 3.18996 3.34722 4.65785 3.34722H59.1437C60.6116 3.34722 61.8015 4.55357 61.8015 6.04167C61.8015 7.52977 60.6116 8.73611 59.1437 8.73611H4.65784C3.18996 8.73611 2 7.52977 2 6.04167Z" fill="#1D1D1B"/>
<path d="M13.9603 49.1528C13.9603 47.6647 15.1503 46.4583 16.6181 46.4583H59.1437C60.6116 46.4583 61.8015 47.6647 61.8015 49.1528C61.8015 50.6409 60.6116 51.8472 59.1437 51.8472H16.6181C15.1503 51.8472 13.9603 50.6409 13.9603 49.1528Z" fill="#1D1D1B"/>
<path d="M100.34 94.9583C100.34 93.4702 101.53 92.2639 102.998 92.2639H145.524C146.992 92.2639 148.181 93.4702 148.181 94.9583C148.181 96.4464 146.992 97.6528 145.524 97.6528H102.998C101.53 97.6528 100.34 96.4464 100.34 94.9583Z" fill="#1D1D1B"/>
<path d="M206.654 3.34722H269.113V8.73611H206.654V3.34722Z" fill="#1D1D1B"/>
<path d="M649.185 49.1528C649.185 47.6647 650.375 46.4583 651.843 46.4583H702.342C703.81 46.4583 705 47.6647 705 49.1528C705 50.6409 703.81 51.8472 702.342 51.8472H651.843C650.375 51.8472 649.185 50.6409 649.185 49.1528Z" fill="#1D1D1B"/>
<path d="M649.185 94.9583C649.185 93.4702 650.375 92.2639 651.843 92.2639H702.342C703.81 92.2639 705 93.4702 705 94.9583C705 96.4464 703.81 97.6528 702.342 97.6528H651.843C650.375 97.6528 649.185 96.4464 649.185 94.9583Z" fill="#1D1D1B"/>
<path d="M450.014 53.7189C451.192 52.8313 452.857 53.0801 453.732 54.2745L483.307 94.622C484.183 95.8164 483.937 97.5042 482.759 98.3918C481.581 99.2794 479.916 99.0306 479.04 97.8362L449.466 57.4887C448.59 56.2942 448.835 54.6065 450.014 53.7189Z" fill="#1D1D1B"/>
<path d="M4.65785 97.6528C3.18996 97.6528 2 96.4464 2 94.9583V49.1528C2 47.6647 3.18996 46.4583 4.65785 46.4583C6.12573 46.4583 7.31569 47.6647 7.31569 49.1528V94.9583C7.31569 96.4464 6.12573 97.6528 4.65785 97.6528Z" fill="#1D1D1B"/>
<path d="M92.3667 97.6528C90.8988 97.6528 89.7089 96.4464 89.7089 94.9583V6.04167C89.7089 4.55357 90.8988 3.34722 92.3667 3.34722C93.8346 3.34722 95.0246 4.55357 95.0246 6.04167V94.9583C95.0246 96.4464 93.8346 97.6528 92.3667 97.6528Z" fill="#1D1D1B"/>
<path d="M310.725 98.6461C309.272 99.0476 307.774 98.1796 307.378 96.7072L287.391 22.4087L292.651 20.9546L312.637 95.2531C313.033 96.7255 312.177 98.2446 310.725 98.6461Z" fill="#1D1D1B"/>
<path d="M363.982 97.457C362.573 97.873 361.098 97.052 360.687 95.6232L334.974 6.09357C334.563 4.6648 335.373 3.16932 336.783 2.75332C338.192 2.33732 339.667 3.15832 340.077 4.5871L365.791 94.1167C366.201 95.5455 365.391 97.041 363.982 97.457Z" fill="#1D1D1B"/>
<path d="M362.757 97.2215C361.35 96.7987 360.547 95.2992 360.964 93.8725L387.101 4.46904C387.519 3.04228 388.998 2.22847 390.405 2.65132C391.812 3.07418 392.615 4.57359 392.198 6.00034L366.061 95.4038C365.644 96.8306 364.165 97.6444 362.757 97.2215Z" fill="#1D1D1B"/>
<path d="M427.255 97.6528C425.787 97.6528 424.597 96.4464 424.597 94.9583V4.69445C424.597 3.20635 425.787 2 427.255 2C428.723 2 429.913 3.20634 429.913 4.69444V94.9583C429.913 96.4464 428.723 97.6528 427.255 97.6528Z" fill="#1D1D1B"/>
<path d="M524.267 99C522.799 99 521.609 97.7937 521.609 96.3056V6.04167C521.609 4.55357 522.799 3.34722 524.267 3.34722C525.734 3.34722 526.924 4.55357 526.924 6.04167V96.3056C526.924 97.7937 525.734 99 524.267 99Z" fill="#1D1D1B"/>
<path d="M586.726 99C585.258 99 584.068 97.7937 584.068 96.3056V19.5139C584.068 18.0258 585.258 16.8194 586.726 16.8194C588.194 16.8194 589.384 18.0258 589.384 19.5139V96.3056C589.384 97.7937 588.194 99 586.726 99Z" fill="#1D1D1B"/>
<path d="M550.845 6.04167C550.845 4.55357 552.035 3.34722 553.503 3.34722H702.342C703.81 3.34722 705 4.55357 705 6.04167C705 7.52977 703.81 8.73611 702.342 8.73611H553.503C552.035 8.73611 550.845 7.52977 550.845 6.04167Z" fill="#1D1D1B"/>
<path d="M309.402 98.1694C307.985 97.78 307.148 96.3 307.532 94.8638L331.611 4.83508C331.996 3.39884 333.455 2.55023 334.872 2.93966C336.289 3.32909 337.126 4.80909 336.742 6.24533L312.663 96.274C312.278 97.7103 310.818 98.5589 309.402 98.1694Z" fill="#1D1D1B"/>
<path d="M438.619 6.97648C438.075 5.64286 438.862 4.13383 440.269 3.91915C444.941 3.20678 449.77 3.15808 454.484 3.78316C460.111 4.52948 465.416 6.21543 469.972 8.70523C474.528 11.195 478.206 14.4191 480.711 18.1178C483.216 21.8164 484.478 25.8863 484.395 29.9997C484.312 34.113 482.886 38.1549 480.233 41.7997C477.579 45.4444 473.772 48.5903 469.118 50.984C464.463 53.3776 459.092 54.952 453.437 55.5805C448.723 56.1044 443.921 55.9588 439.301 55.1593C437.877 54.9129 437.121 53.3545 437.723 52.0232C438.174 51.0259 439.253 50.4941 440.318 50.6908C444.282 51.4235 448.419 51.5716 452.478 51.1206C457.162 50.6001 461.61 49.2961 465.465 47.3137C469.319 45.3312 472.473 42.7257 474.67 39.7071C476.868 36.6884 478.049 33.3409 478.118 29.9341C478.187 26.5274 477.142 23.1566 475.067 20.0933C472.992 17.03 469.945 14.3598 466.172 12.2977C462.399 10.2356 458.006 8.83926 453.345 8.22115C449.311 7.68628 445.176 7.74707 441.188 8.39427C440.11 8.56916 439.036 7.99887 438.619 6.97648Z" fill="#1D1D1B"/>
<path d="M239.813 18.903C240.93 17.8172 242.701 17.811 243.753 18.962C250.443 26.2798 254.602 35.4839 255.594 45.2706C256.679 55.972 253.911 66.7079 247.762 75.6488C241.612 84.5898 232.462 91.1827 221.871 94.3042C211.279 97.4257 199.901 96.8826 189.675 92.7675C179.449 88.6525 171.008 81.22 165.791 71.7365C160.573 62.2531 158.902 51.3053 161.061 40.7588C163.22 30.2122 169.077 20.7193 177.633 13.8975C185.458 7.65867 195.097 4.00701 205.154 3.4285C206.715 3.33873 207.983 4.63169 207.983 6.21617C207.983 7.80065 206.715 9.07544 205.155 9.17783C196.466 9.74829 188.148 12.9364 181.38 18.333C173.88 24.3126 168.746 32.6336 166.854 41.8782C164.961 51.1228 166.426 60.719 170.999 69.0317C175.573 77.3444 182.972 83.8594 191.935 87.4664C200.899 91.0735 210.872 91.5495 220.156 88.8133C229.44 86.0772 237.461 80.2982 242.851 72.461C248.241 64.6238 250.667 55.2134 249.716 45.833C248.866 37.4496 245.366 29.5538 239.734 23.2123C238.634 21.9737 238.626 20.0562 239.813 18.903Z" fill="#1D1D1B"/>
<path d="M268.529 3.39305C274.001 3.70513 279.248 5.60185 283.585 8.83532C287.922 12.0688 291.146 16.4886 292.836 21.5171L287.605 23.1522C286.256 19.1386 283.683 15.6109 280.221 13.0301C276.76 10.4492 272.572 8.93535 268.204 8.68625L268.529 3.39305Z" fill="#1D1D1B"/>
<path d="M2 6.04167C2 4.55357 3.18996 3.34722 4.65785 3.34722H59.1437C60.6116 3.34722 61.8015 4.55357 61.8015 6.04167C61.8015 7.52977 60.6116 8.73611 59.1437 8.73611H4.65784C3.18996 8.73611 2 7.52977 2 6.04167Z" stroke="#1D1D1B" stroke-width="4"/>
<path d="M13.9603 49.1528C13.9603 47.6647 15.1503 46.4583 16.6181 46.4583H59.1437C60.6116 46.4583 61.8015 47.6647 61.8015 49.1528C61.8015 50.6409 60.6116 51.8472 59.1437 51.8472H16.6181C15.1503 51.8472 13.9603 50.6409 13.9603 49.1528Z" stroke="#1D1D1B" stroke-width="4"/>
<path d="M100.34 94.9583C100.34 93.4702 101.53 92.2639 102.998 92.2639H145.524C146.992 92.2639 148.181 93.4702 148.181 94.9583C148.181 96.4464 146.992 97.6528 145.524 97.6528H102.998C101.53 97.6528 100.34 96.4464 100.34 94.9583Z" stroke="#1D1D1B" stroke-width="4"/>
<path d="M206.654 3.34722H269.113V8.73611H206.654V3.34722Z" stroke="#1D1D1B" stroke-width="4"/>
<path d="M649.185 49.1528C649.185 47.6647 650.375 46.4583 651.843 46.4583H702.342C703.81 46.4583 705 47.6647 705 49.1528C705 50.6409 703.81 51.8472 702.342 51.8472H651.843C650.375 51.8472 649.185 50.6409 649.185 49.1528Z" stroke="#1D1D1B" stroke-width="4"/>
<path d="M649.185 94.9583C649.185 93.4702 650.375 92.2639 651.843 92.2639H702.342C703.81 92.2639 705 93.4702 705 94.9583C705 96.4464 703.81 97.6528 702.342 97.6528H651.843C650.375 97.6528 649.185 96.4464 649.185 94.9583Z" stroke="#1D1D1B" stroke-width="4"/>
<path d="M450.014 53.7189C451.192 52.8313 452.857 53.0801 453.732 54.2745L483.307 94.622C484.183 95.8164 483.937 97.5042 482.759 98.3918C481.581 99.2794 479.916 99.0306 479.04 97.8362L449.466 57.4887C448.59 56.2942 448.835 54.6065 450.014 53.7189Z" stroke="#1D1D1B" stroke-width="4"/>
<path d="M4.65785 97.6528C3.18996 97.6528 2 96.4464 2 94.9583V49.1528C2 47.6647 3.18996 46.4583 4.65785 46.4583C6.12573 46.4583 7.31569 47.6647 7.31569 49.1528V94.9583C7.31569 96.4464 6.12573 97.6528 4.65785 97.6528Z" stroke="#1D1D1B" stroke-width="4"/>
<path d="M92.3667 97.6528C90.8988 97.6528 89.7089 96.4464 89.7089 94.9583V6.04167C89.7089 4.55357 90.8988 3.34722 92.3667 3.34722C93.8346 3.34722 95.0246 4.55357 95.0246 6.04167V94.9583C95.0246 96.4464 93.8346 97.6528 92.3667 97.6528Z" stroke="#1D1D1B" stroke-width="4"/>
<path d="M310.725 98.6461C309.272 99.0476 307.774 98.1796 307.378 96.7072L287.391 22.4087L292.651 20.9546L312.637 95.2531C313.033 96.7255 312.177 98.2446 310.725 98.6461Z" stroke="#1D1D1B" stroke-width="4"/>
<path d="M363.982 97.457C362.573 97.873 361.098 97.052 360.687 95.6232L334.974 6.09357C334.563 4.6648 335.373 3.16932 336.783 2.75332C338.192 2.33732 339.667 3.15832 340.077 4.5871L365.791 94.1167C366.201 95.5455 365.391 97.041 363.982 97.457Z" stroke="#1D1D1B" stroke-width="4"/>
<path d="M362.757 97.2215C361.35 96.7987 360.547 95.2992 360.964 93.8725L387.101 4.46904C387.519 3.04228 388.998 2.22847 390.405 2.65132C391.812 3.07418 392.615 4.57359 392.198 6.00034L366.061 95.4038C365.644 96.8306 364.165 97.6444 362.757 97.2215Z" stroke="#1D1D1B" stroke-width="4"/>
<path d="M427.255 97.6528C425.787 97.6528 424.597 96.4464 424.597 94.9583V4.69445C424.597 3.20635 425.787 2 427.255 2C428.723 2 429.913 3.20634 429.913 4.69444V94.9583C429.913 96.4464 428.723 97.6528 427.255 97.6528Z" stroke="#1D1D1B" stroke-width="4"/>
<path d="M524.267 99C522.799 99 521.609 97.7937 521.609 96.3056V6.04167C521.609 4.55357 522.799 3.34722 524.267 3.34722C525.734 3.34722 526.924 4.55357 526.924 6.04167V96.3056C526.924 97.7937 525.734 99 524.267 99Z" stroke="#1D1D1B" stroke-width="4"/>
<path d="M586.726 99C585.258 99 584.068 97.7937 584.068 96.3056V19.5139C584.068 18.0258 585.258 16.8194 586.726 16.8194C588.194 16.8194 589.384 18.0258 589.384 19.5139V96.3056C589.384 97.7937 588.194 99 586.726 99Z" stroke="#1D1D1B" stroke-width="4"/>
<path d="M550.845 6.04167C550.845 4.55357 552.035 3.34722 553.503 3.34722H702.342C703.81 3.34722 705 4.55357 705 6.04167C705 7.52977 703.81 8.73611 702.342 8.73611H553.503C552.035 8.73611 550.845 7.52977 550.845 6.04167Z" stroke="#1D1D1B" stroke-width="4"/>
<path d="M309.402 98.1694C307.985 97.78 307.148 96.3 307.532 94.8638L331.611 4.83508C331.996 3.39884 333.455 2.55023 334.872 2.93966C336.289 3.32909 337.126 4.80909 336.742 6.24533L312.663 96.274C312.278 97.7103 310.818 98.5589 309.402 98.1694Z" stroke="#1D1D1B" stroke-width="4"/>
<path d="M438.619 6.97648C438.075 5.64286 438.862 4.13383 440.269 3.91915C444.941 3.20678 449.77 3.15808 454.484 3.78316C460.111 4.52948 465.416 6.21543 469.972 8.70523C474.528 11.195 478.206 14.4191 480.711 18.1178C483.216 21.8164 484.478 25.8863 484.395 29.9997C484.312 34.113 482.886 38.1549 480.233 41.7997C477.579 45.4444 473.772 48.5903 469.118 50.984C464.463 53.3776 459.092 54.952 453.437 55.5805C448.723 56.1044 443.921 55.9588 439.301 55.1593C437.877 54.9129 437.121 53.3545 437.723 52.0232C438.174 51.0259 439.253 50.4941 440.318 50.6908C444.282 51.4235 448.419 51.5716 452.478 51.1206C457.162 50.6001 461.61 49.2961 465.465 47.3137C469.319 45.3312 472.473 42.7257 474.67 39.7071C476.868 36.6884 478.049 33.3409 478.118 29.9341C478.187 26.5274 477.142 23.1566 475.067 20.0933C472.992 17.03 469.945 14.3598 466.172 12.2977C462.399 10.2356 458.006 8.83926 453.345 8.22115C449.311 7.68628 445.176 7.74707 441.188 8.39427C440.11 8.56916 439.036 7.99887 438.619 6.97648Z" stroke="#1D1D1B" stroke-width="4"/>
<path d="M239.813 18.903C240.93 17.8172 242.701 17.811 243.753 18.962C250.443 26.2798 254.602 35.4839 255.594 45.2706C256.679 55.972 253.911 66.7079 247.762 75.6488C241.612 84.5898 232.462 91.1827 221.871 94.3042C211.279 97.4257 199.901 96.8826 189.675 92.7675C179.449 88.6525 171.008 81.22 165.791 71.7365C160.573 62.2531 158.902 51.3053 161.061 40.7588C163.22 30.2122 169.077 20.7193 177.633 13.8975C185.458 7.65867 195.097 4.00701 205.154 3.4285C206.715 3.33873 207.983 4.63169 207.983 6.21617C207.983 7.80065 206.715 9.07544 205.155 9.17783C196.466 9.74829 188.148 12.9364 181.38 18.333C173.88 24.3126 168.746 32.6336 166.854 41.8782C164.961 51.1228 166.426 60.719 170.999 69.0317C175.573 77.3444 182.972 83.8594 191.935 87.4664C200.899 91.0735 210.872 91.5495 220.156 88.8133C229.44 86.0772 237.461 80.2982 242.851 72.461C248.241 64.6238 250.667 55.2134 249.716 45.833C248.866 37.4496 245.366 29.5538 239.734 23.2123C238.634 21.9737 238.626 20.0562 239.813 18.903Z" stroke="#1D1D1B" stroke-width="4"/>
<path d="M268.529 3.39305C274.001 3.70513 279.248 5.60185 283.585 8.83532C287.922 12.0688 291.146 16.4886 292.836 21.5171L287.605 23.1522C286.256 19.1386 283.683 15.6109 280.221 13.0301C276.76 10.4492 272.572 8.93535 268.204 8.68625L268.529 3.39305Z" stroke="#1D1D1B" stroke-width="4"/>
</svg>
