<svg width="165" height="48" viewBox="0 0 165 48" fill="none" xmlns="http://www.w3.org/2000/svg">
<path fill-rule="evenodd" clip-rule="evenodd" d="M70.8262 13.0664C81.3198 13.0664 88.293 20.0399 88.293 30.4658C88.2928 40.9592 81.3196 48 70.8262 48C60.3328 47.9999 53.2921 40.9591 53.292 30.4658C53.292 20.04 60.3327 13.0665 70.8262 13.0664ZM70.7588 20.5137C65.1396 20.5137 61.416 24.2371 61.416 30.5332C61.416 36.8293 65.1396 40.5527 70.7588 40.5527C76.4456 40.5527 80.1689 36.8293 80.1689 30.5332C80.1689 24.2371 76.4456 20.5137 70.7588 20.5137Z" fill="#1D1D1B"/>
<path d="M32.2256 6.78613C32.2256 7.33842 31.7779 7.78613 31.2256 7.78613H9.46289C8.91061 7.78613 8.46289 8.23385 8.46289 8.78613V17.5498C8.46289 18.1021 8.91061 18.5498 9.46289 18.5498H27.0283C27.5806 18.5498 28.0283 18.9975 28.0283 19.5498V25.3359C28.0283 25.8882 27.5806 26.3359 27.0283 26.3359H9.46289C8.91061 26.3359 8.46289 26.7837 8.46289 27.3359V46.3906C8.46289 46.9429 8.01518 47.3906 7.46289 47.3906H1C0.447715 47.3906 0 46.9429 0 46.3906V1C0 0.447716 0.447715 0 1 0H31.2256C31.7779 0 32.2256 0.447715 32.2256 1V6.78613Z" fill="#1D1D1B"/>
<path d="M46.8135 46.3906C46.8135 46.9429 46.3658 47.3906 45.8135 47.3906H39.6895C39.1372 47.3906 38.6895 46.9429 38.6895 46.3906V1C38.6895 0.447716 39.1372 0 39.6895 0H45.8135C46.3658 0 46.8135 0.447715 46.8135 1V46.3906Z" fill="#1D1D1B"/>
<path d="M106.62 33.8762C106.937 34.7581 108.184 34.7581 108.501 33.8762L113.325 20.4731L115.61 14.1979C115.754 13.8029 116.129 13.54 116.55 13.54H118.934C119.354 13.54 119.73 13.8029 119.873 14.198L122.049 20.1743L126.93 33.8561C127.246 34.7401 128.495 34.7418 128.813 33.8587L135.888 14.2014C136.031 13.8046 136.407 13.54 136.829 13.54H139.24C139.661 13.54 140.036 13.8029 140.18 14.198L142.355 20.1724C142.355 20.1733 142.355 20.1743 142.355 20.1753C142.355 20.1762 142.355 20.1773 142.355 20.1782L147.239 33.8632C147.554 34.7471 148.804 34.7488 149.122 33.8657L156.199 14.2014C156.341 13.8046 156.718 13.54 157.139 13.54H163.723C164.422 13.54 164.906 14.2395 164.658 14.8936L152.618 46.7442C152.471 47.1332 152.099 47.3906 151.683 47.3906H144.672C144.255 47.3906 143.882 47.1325 143.736 46.7426L138.973 34.0773C138.648 33.2141 137.427 33.213 137.101 34.0757L132.313 46.7442C132.166 47.1332 131.793 47.3906 131.377 47.3906H124.36C123.944 47.3906 123.572 47.1332 123.425 46.7442L118.636 34.0757C118.31 33.213 117.089 33.2141 116.765 34.0773L112.002 46.7426C111.855 47.1325 111.482 47.3906 111.066 47.3906H104.054C103.638 47.3906 103.266 47.1332 103.119 46.7442L91.08 14.8936C90.8327 14.2395 91.3161 13.54 92.0154 13.54H98.5988C99.0206 13.54 99.397 13.8046 99.5398 14.2015L106.62 33.8762Z" fill="#1D1D1B"/>
</svg>
